<?xml version="1.0" encoding="UTF-8"?>
<svg id="Layer_1" xmlns="http://www.w3.org/2000/svg" version="1.1" viewBox="0 0 1200 486.0515">
  <!-- Generator: Adobe Illustrator 30.2.1, SVG Export Plug-In . SVG Version: 2.1.1 Build 1)  -->
  <defs>
    <style>
      .st0 {
        fill: #3c5975;
      }

      .st1 {
        fill: #edce22;
      }
    </style>
  </defs>
  <path class="st0" d="M501.8481,269.445c-1.7242,4.6741-2.3751,9.4624-3.0641,14.5285-.7574,5.5533-1.5377,11.2932-3.8177,17.0672-2.2685,5.7399-7.0986,10.1779-13.6036,12.4998-5.4811,1.9564-11.7575,2.2228-16.7932.7117-3.2316-.9706-5.2869-1.256-6.4631-.8982-1.0429.3197-2.1086,1.374-3.8405,3.3343-2.4094,2.7329-2.8547,6.5011-3.4142,11.2703-.1751,1.4883-.3579,3.026-.6128,4.6247-1.2408,7.7457-7.407,9.8582-12.3589,11.5557-1.1266.3844-2.2876.7803-3.3875,1.2294-4.9368,2.0211-7.2358,3.6008-11.8108,6.7409-.6281.4339-1.2942.8907-2.0097,1.3779-1.3969.9516-2.7595,2.0363-4.0803,3.0869-4.4191,3.517-9.4243,7.5022-15.2327,4.9215-2.8053-1.2485-5.9835-2.6606-11.2437,4.754-1.336,1.8841-3.1249,4.126-5.1956,6.7256-7.4146,9.3139-18.624,23.3857-23.5988,39.3415-4.5066,14.46-1.1114,27.1043,2.4817,40.4871,1.3208,4.9215,2.6872,10.0067,3.6578,15.2327,1.9602,10.5586-1.4806,14.9167-4.7121,16.7133-1.6557.9173-3.4751,1.3018-5.3364,1.3018-5.5343,0-11.4568-3.3952-14.6237-6.2879-3.6236-3.3076-17.6839-6.1585-27.9493-8.2444-5.3592-1.0886-10.4177-2.1124-14.5818-3.2163-14.7873-3.9242-20.4663-21.7566-24.3981-40.4415-2.5806-12.2562-10.2845-19.6746-18.4375-27.5306-1.3512-1.3018-2.7481-2.6454-4.0993-3.9966-4.4152-4.4191-6.5125-10.2959-8.9409-17.1053-3.3495-9.3977-7.1444-20.0514-18.2244-31.4397-15.6666-16.1005-27.249-31.7061-31.5006-37.6667-.4187-.59-1.1038-.9478-1.827-.9554-5.4353-.0571-19.3396-.1713-31.021.0381-10.7945.1903-11.963,2.3142-18.4451,14.1022-1.1799,2.1467-2.5159,4.5751-4.0879,7.289-5.3211,9.2074-12.2105,11.6624-17.0482,12.1001-.628.0571-1.2485.0837-1.865.0837-8.3814,0-15.7237-4.9938-18.7953-8.6059-2.0934-2.4626-6.1014-5.1004-10.3454-7.8942-4.1716-2.7443-8.488-5.58-11.8603-8.8153-4.9367-4.7312-7.9513-13.0326-11.7613-23.5379-1.8879-5.1994-4.0232-11.0914-6.6419-17.1663-5.5914-12.9831-11.9022-19.0389-16.5077-23.4617-1.5301-1.4654-2.8509-2.7329-3.9966-4.0803l-.1332-.1561-.118-.1751c-4.6246-6.8132-12.2219-11.3198-17.5316-14.1136-3.7986-1.9983-16.3098-9.1883-17.8666-17.76-.4872-2.6796-2.4474-7.6353-5.3744-13.5998-.9135-1.8536-.8031-4.0118.2893-5.7664,1.0924-1.7509,2.9765-2.7976,5.0433-2.7976h130.056l2.0059-190.1835c.0266-2.5731,2.1427-4.6665,4.7157-4.6665h109.2015c2.5427,0,4.6589,2.0668,4.7122,4.6094l1.5758,70.6898c.1103,4.9215,1.4083,9.8049,3.7606,14.1288l2.1848,4.0118c1.6443,3.0222,4.8187,4.8225,8.2786,4.6817,12.7319-.491,18.1673,1.0125,19.3929,5.3668.9135,3.2505.9326,3.3114,4.8568,4.518,3.8748,1.1914,8.6821,1.8879,16.5953,2.4017,2.6263.1675,5.3021-.1104,7.9512-.8374,4.3354-1.1799,7.7496-.4567,10.1513,2.1544,1.8879,2.0554,2.8281,4.9405,3.9128,8.2824l.0609.1865c.8716,2.672,2.0287,3.6845,2.3332,3.7301.1789.0038,1.1533-.3692,2.653-2.3675l.2513-.3388c2.2038-2.9575,4.0993-4.971,10.1741-5.9949,5.9796-1.0125,9.4052,2.9346,11.6738,5.5457.6661.7727,1.9107,2.2038,2.3865,2.299,0,0,.1408-.0038.4682-.1523,1.3208-.6052,2.4208-1.2599,3.4827-1.8917,3.4599-2.0516,7.3803-4.381,13.4856-.1827,3.3913,2.3294,4.9786,2.3903,8.8114,2.5388.6167.0228,1.2713.0495,1.9717.0837,1.6671.0876,2.1544-.2512,3.4523-1.1533,1.3284-.9211,3.144-2.181,6.1966-2.7595,1.7623-.3311,3.0983-.4453,4.1716-.5329,2.044-.1751,2.733-.2322,4.9292-1.7395,4.5865-3.1554,12.3741-3.0488,22.2323-2.9156,1.9411.0266,3.9432.0533,5.9606.0533,7.3461,0,12.5911,3.9395,14.0984,10.5547l21.5511.9059c2.7367.1142,4.8796,2.3523,4.8796,5.089v66.758c3.1859.9439,7.2129,3.4447,9.6222,9.8734l.3045.8145c2.3332,6.2347,5.5305,14.7683,10.5662,22.5749,6.4478,9.9952,6.09,27.4012,2.0173,38.4584l-.0002.0004Z"/>
  <g>
    <path class="st1" d="M181.0674,155.4938h22.8759v48.9654h52.6914v-48.9654h22.7015v118.6001h-22.7015v-50.4885h-52.6914v50.4885h-22.8759v-118.6001Z"/>
    <path class="st1" d="M305.0911,275.279c-4.0677,0-7.4307-1.2954-10.082-3.8969-2.6549-2.5944-3.9823-5.8151-3.9823-9.655s1.3274-7.0891,3.9823-9.744c2.6513-2.6513,6.0144-3.9823,10.082-3.9823,4.0641,0,7.4521,1.331,10.1639,3.9823,2.7118,2.6549,4.0677,5.904,4.0677,9.744s-1.3559,7.0606-4.0677,9.655c-2.7118,2.6015-6.0998,3.8969-10.1639,3.8969Z"/>
    <path class="st1" d="M375.2312,155.4938c12.6479,0,23.6375,2.4556,32.9544,7.3702,9.3205,4.9147,16.5448,11.833,21.6872,20.7548,5.1389,8.9254,7.7083,19.4274,7.7083,31.5131s-2.5694,22.5093-7.7083,31.2604c-5.1424,8.7546-12.3668,15.5626-21.6872,20.4168-9.3169,4.8577-20.3064,7.2848-32.9544,7.2848h-44.2215v-118.6001h44.2215ZM374.5551,254.9477c12.7618,0,22.6161-3.5268,29.5628-10.5874,6.9468-7.0571,10.4201-16.801,10.4201-29.2283,0-12.5376-3.4734-22.4204-10.4201-29.6483-6.9468-7.2279-16.801-10.8436-29.5628-10.8436h-20.6694v80.3076h20.6694Z"/>
    <path class="st1" d="M448.0867,275.279c-4.0677,0-7.4307-1.2954-10.082-3.8969-2.6549-2.5944-3.9823-5.8151-3.9823-9.655s1.3274-7.0891,3.9823-9.744c2.6513-2.6513,6.0144-3.9823,10.082-3.9823,4.0641,0,7.4521,1.331,10.1639,3.9823,2.7118,2.6549,4.0677,5.904,4.0677,9.744s-1.3559,7.0606-4.0677,9.655c-2.7118,2.6015-6.0998,3.8969-10.1639,3.8969Z"/>
    <path class="st0" d="M617.5117,193.1066c-3.7261-6.8863-8.3881-11.8294-13.9771-14.8259-5.5909-2.9894-11.7191-4.4876-18.3811-4.4876-7.1176,0-13.5305,1.7509-19.2317,5.2528-5.7047,3.5018-10.2244,8.3311-13.5554,14.4843-3.331,6.1567-4.9965,13.2458-4.9965,21.2638,0,8.2457,1.637,15.4167,4.9147,21.5164,3.2741,6.0998,7.7653,10.8721,13.47,14.317,5.7012,3.4485,12.2244,5.1674,19.5662,5.1674,4.8577,0,9.4059-.8185,13.6408-2.4556s7.9877-3.9823,11.2653-7.0322c3.2741-3.0499,5.872-6.4948,7.7937-10.3347v-9.8258h-32.3583v-18.2993h54.7217v31.0042c-2.8257,6.5553-6.8613,12.5981-12.1141,18.132s-11.5803,9.9682-18.9755,13.2992c-7.3969,3.331-15.6142,4.9965-24.6499,4.9965-8.5838,0-16.5768-1.4662-23.9755-4.4058-7.3987-2.936-13.8081-7.0855-19.2281-12.4522-5.4236-5.3631-9.6301-11.744-12.623-19.1463-2.9929-7.3952-4.4912-15.5555-4.4912-24.4809,0-8.8116,1.4982-16.9149,4.4912-24.3136,2.9929-7.3952,7.1994-13.8081,12.623-19.2281,5.42-5.4236,11.8009-9.6016,19.1463-12.5376,7.3382-2.936,15.3028-4.4058,23.8866-4.4058,7.9076,0,15.4202,1.2705,22.5325,3.8115,7.1176,2.541,13.4131,6.1852,18.8936,10.929,5.477,4.7439,9.6265,10.6159,12.4522,17.6196l-20.8403,6.4378h0Z"/>
    <path class="st0" d="M649.1956,189.3806h19.8224l1.3559,10.8436c2.3702-2.936,5.0535-5.3631,8.0464-7.2848s6.2706-3.2207,9.8258-3.8969c3.5588-.6797,7.3702-.5658,11.4379.3381v20.1605c-2.9396-.9004-6.0998-1.1281-9.4877-.6762-3.388.452-6.5233,1.637-9.4023,3.5588-2.8826,1.9217-5.2528,4.6869-7.1176,8.2991-1.8648,3.6157-2.7936,8.0784-2.7936,13.3846v39.9865h-21.6872v-84.7134h0Z"/>
    <path class="st0" d="M754.9165,274.094l-1.694-10.3347c-2.8257,3.6157-6.0179,6.4129-9.5731,8.3881-3.5588,1.9716-8.3311,2.9645-14.317,2.9645-5.6514,0-10.591-.9929-14.8259-2.9645-4.235-1.9751-7.5411-4.7474-9.9112-8.3027-2.3737-3.5588-3.5588-7.7653-3.5588-12.623,0-7.1176,2.5694-13.018,7.7083-17.705,5.1389-4.6869,12.9042-7.6514,23.2958-8.897l21.1819-2.2029v-6.0962c0-2.484-1.0748-4.7154-3.2207-6.6941-2.1459-1.9751-5.5339-2.9645-10.1675-2.9645-4.0641,0-7.5945.9893-10.5874,2.9645-2.9929,1.9787-5.0001,4.9432-6.0144,8.8934l-18.8082-6.7759c2.484-7.566,6.8898-13.3846,13.2173-17.4523,6.324-4.0641,14.0608-6.0962,23.2104-6.0962,11.1817,0,19.6552,2.8221,25.4133,8.4699,5.7617,5.6478,8.6407,12.9896,8.6407,22.0253v55.4032h-19.9897.0002ZM753.2225,237.499l-18.2993,2.0321c-3.8435.5658-6.6941,1.7225-8.5553,3.4734-1.8648,1.7509-2.7972,3.8115-2.7972,6.1852,0,2.484.9893,4.5481,2.9645,6.1816,1.9751,1.6406,4.6585,2.4591,8.05,2.4591,3.9503,0,7.3097-.7046,10.0785-2.121,2.7687-1.4093,4.8862-3.5552,6.356-6.4378,1.4662-2.8791,2.2029-6.4094,2.2029-10.5874v-1.1851h0Z"/>
    <path class="st0" d="M786.2587,189.3806h19.6516l1.5267,8.6407c2.7118-3.0499,6.0144-5.4485,9.9112-7.203,3.8969-1.7474,8.1034-2.6228,12.623-2.6228,6.7759,0,12.5091,1.4128,17.1961,4.235,4.6869,2.8221,8.2742,6.9183,10.7582,12.2814,2.484,5.3667,3.7261,12.0038,3.7261,19.9079v49.4743h-21.6837v-46.7625c0-6.324-1.331-11.1817-3.9823-14.5697-2.6549-3.388-6.5802-5.0855-11.776-5.0855-5.3097,0-9.3489,1.6975-12.1141,5.0855-2.7687,3.388-4.1495,8.3596-4.1495,14.9078v46.4244h-21.6872v-84.7134h0Z"/>
    <path class="st0" d="M878.7658,189.3806v-23.7193h22.1962v23.7193h18.6374v19.1463h-18.6374v34.3921c0,4.5197.9004,7.655,2.7082,9.4023,1.8079,1.7545,4.178,2.6869,7.1176,2.7972,2.936.1139,5.9289-.0569,8.9788-.5089v18.6374c-5.3097,1.1281-10.4486,1.4947-15.4167,1.0997-4.9716-.3915-9.3489-1.7189-13.1319-3.9787-3.7865-2.2598-6.8044-5.6193-9.0642-10.082s-3.388-10.2493-3.388-17.3669v-34.3921h-11.8614v-19.1463h11.8614,0Z"/>
    <path class="st0" d="M960.9347,214.7939c0-8.9219,1.4982-17.0822,4.4912-24.4809s7.1994-13.7796,12.623-19.1463c5.42-5.3631,11.776-9.5162,19.0609-12.4522,7.2848-2.936,15.2174-4.4058,23.8047-4.4058,12.0856,0,22.8439,2.9075,32.2746,8.7261,9.4308,5.8186,16.5199,14.0892,21.2638,24.819l-19.1462,5.7617c-2.484-4.7439-5.5624-8.5838-9.2314-11.5198-3.6727-2.936-7.655-5.0855-11.9468-6.4414-4.2919-1.3523-8.5837-2.0321-12.8757-2.0321-7.3453,0-13.8081,1.7545-19.3989,5.2528-5.5909,3.5018-9.9717,8.3027-13.1319,14.4024-3.1638,6.0998-4.7439,13.2743-4.7439,21.5164s1.5801,15.4167,4.7439,21.5164c3.1602,6.0998,7.5411,10.9041,13.1319,14.4024,5.5909,3.5018,12.0536,5.2528,19.3989,5.2528,4.4058,0,8.8365-.7046,13.2993-2.1175,4.4626-1.4128,8.6123-3.783,12.4521-7.1176,3.8398-3.331,7.1176-7.8792,9.8293-13.6373l18.8046,5.2528c-4.8577,12.4237-12.0856,21.6837-21.6873,27.7835-9.6016,6.0998-20.6125,9.1496-33.0362,9.1496-8.5874,0-16.5199-1.4662-23.8047-4.4058-7.2848-2.936-13.6408-7.114-19.0609-12.5376-5.4236-5.42-9.6301-11.8294-12.623-19.2281s-4.4912-15.5021-4.4912-24.3136h-.0001Z"/>
    <path class="st0" d="M1123.7527,275.279c-8.2457,0-15.5875-1.7794-22.0253-5.3346-6.4377-3.5588-11.4949-8.5838-15.1639-15.0821-3.6727-6.4912-5.5054-14.1462-5.5054-22.9577,0-8.9183,1.8612-16.6587,5.5909-23.2104,3.7261-6.5482,8.8934-11.6052,15.5021-15.164,6.6051-3.5588,13.9753-5.3346,22.1107-5.3346s15.5021,1.7758,22.1107,5.3346c6.6051,3.5588,11.8293,8.5874,15.6693,15.0786,3.8398,6.4983,5.7617,14.1497,5.7617,22.9577,0,8.9254-1.9467,16.6622-5.8435,23.214-3.8969,6.5517-9.1781,11.6052-15.8438,15.164-6.6656,3.5552-14.1213,5.3346-22.3634,5.3346h-.0002ZM1123.7527,255.7947c3.4983,0,6.8044-.8719,9.9113-2.6264,3.1068-1.7474,5.6763-4.4022,7.7083-7.961,2.0321-3.5588,3.0499-8.1034,3.0499-13.6408,0-5.3062-.9609-9.7404-2.8792-13.2992-1.9218-3.5588-4.4342-6.2101-7.5411-7.9646-3.1068-1.7474-6.4663-2.6264-10.082-2.6264-3.5018,0-6.7476.879-9.7404,2.6264-2.9929,1.7545-5.3951,4.4058-7.1993,7.9646-1.8079,3.5588-2.7118,8.1069-2.7118,13.6373,0,5.3133.8719,9.744,2.6263,13.3027,1.7509,3.5588,4.0927,6.2136,7.0322,7.961,2.936,1.7545,6.2101,2.6264,9.8258,2.6264h0Z"/>
    <path class="st0" d="M1184.5831,275.279c-4.0677,0-7.4307-1.2954-10.082-3.8969-2.6549-2.5944-3.9823-5.8151-3.9823-9.655s1.3274-7.0891,3.9823-9.744c2.6512-2.6513,6.0144-3.9823,10.082-3.9823,4.0641,0,7.4521,1.331,10.1639,3.9823,2.7118,2.6549,4.0677,5.904,4.0677,9.744s-1.356,7.0606-4.0677,9.655c-2.7118,2.6015-6.0999,3.8969-10.1639,3.8969Z"/>
  </g>
  <g>
    <g>
      <path class="st0" d="M658.204,301.389l-39.7589,38.5744h12.4633s10.0942-9.7852,24.6691-9.7852l-.6695,3.7081-1.0815,6.0771h9.9912l6.9012-38.5744h-12.515ZM656.5045,324.822h-9.9912l12.1028-11.6908-2.1115,11.6908h0Z"/>
      <path class="st0" d="M674.8904,301.389h9.9912l-6.9012,38.5744h-9.9912l6.9012-38.5744Z"/>
      <path class="st0" d="M716.3489,344.959l-11.4848-16.6349c.206-.0515.4635-.1545.6695-.206,3.2961-1.1845,5.7166-4.0686,6.3347-7.5192l1.339-7.5707c1.133-6.1286-3.5021-11.6393-9.6307-11.6393h-14.5233l-6.9012,38.5744h9.9912l1.751-9.7852c.7725,0,1.4935-.0515,2.2661-.103l10.2487,14.8839h9.9398ZM697.7054,308.8051h3.8111c2.6266,0,4.5836,2.3691,4.1201,4.9441l-1.2875,7.1072c-.309,1.6995-1.648,3.0386-3.3476,3.3991-1.957.3605-4.0171.5665-6.1801.5665l2.8841-16.0169h-.0001Z"/>
      <g>
        <path class="st0" d="M712.9498,301.595h-.4635v-.206h1.1845v.2575h-.4635v1.236h-.309v-1.2875h.0515Z"/>
        <path class="st0" d="M713.8253,301.389h.4635l.2575.927c0,.0515.0515.206.0515.2575h-.0515c0-.0515.0515-.206.0515-.2575l.2575-.927h.4635v1.4935h-.2575v-1.236h0c0,.103-.0515.1545-.0515.206l-.309,1.03h-.2575l-.309-1.03c0-.0515-.0515-.1545-.0515-.206h0v1.236h-.2575v-1.4935h0Z"/>
      </g>
    </g>
    <g>
      <path class="st0" d="M582.7472,330.3721l-1.2541,9.5919h-5.6262l5.775-35.8543h7.8123l5.998,35.8543h-5.7799l-1.4078-9.5919h-5.5173ZM587.6101,325.2862c-.8179-6.0872-1.6011-11.8672-2.0126-15.922h-.2032c-.1537,2.9544-1.2293,10.6329-1.9481,15.922h4.1639Z"/>
      <path class="st0" d="M598.1091,339.964v-35.8543h6.4045c1.4326,5.0562,5.7105,22.7578,6.0872,24.6563h.0644c-.2578-4.4068-.2726-9.4531-.2726-15.347v-9.3093h5.1058v35.8543h-6.1616c-1.1302-4.2829-5.9038-23.9475-6.2607-25.4544h-.0545c.2627,4.3424.2429,9.2003.2429,15.6494v9.805h-5.1554Z"/>
    </g>
    <g>
      <path class="st0" d="M739.2808,329.2419v1.3979c0,4.1044-.6841,9.8496-8.2634,9.8496-6.6424,0-8.0502-4.149-8.0502-9.6216v-18.0783c0-5.537,2.5132-9.2052,8.1444-9.2052,6.7218,0,8.0056,4.4564,8.0056,9.4283v1.6061h-5.542v-2.2555c0-2.3843-.5552-3.7426-2.4785-3.7426-1.8886,0-2.4984,1.3087-2.4984,3.7624v18.9557c0,2.3397.466,4.159,2.5677,4.159,1.9927,0,2.5231-1.5813,2.5231-4.2482v-2.0076h5.5917Z"/>
      <path class="st0" d="M759.793,313.6273v16.7399c0,6.8705-2.9147,10.1223-8.9921,10.1223-5.8245,0-8.4518-3.3311-8.4518-10.0281v-16.8787c0-6.8655,3.46-9.9984,8.8037-9.9984,5.4329,0,8.6401,3.1428,8.6401,10.043h.0001ZM747.9804,313.082v18.0337c0,2.9841,1.0757,4.382,3.0684,4.382,2.1514,0,3.113-1.3037,3.113-4.4613v-17.9941c0-2.8453-.8724-4.4217-3.118-4.4217-1.9927,0-3.0635,1.4276-3.0635,4.4613h0Z"/>
      <path class="st0" d="M782.1741,326.6246c0-6.0922.0644-13.6814.1735-17.7908h-.0545c-.8229,6.226-2.8057,20.7452-4.3622,31.1302h-5.2148c-1.1599-9.3143-3.1626-24.6167-3.9805-31.1748h-.1041c.1041,4.1788.2726,12.2885.2726,18.4551v12.7198h-5.0116v-35.8543h8.2386c1.3979,9.111,2.8354,19.3275,3.3163,24.354h.0545c.5849-5.0909,2.5281-15.7584,3.9607-24.354h7.961v35.8543h-5.2495v-13.3394h0Z"/>
      <path class="st0" d="M792.2964,304.1097h7.9759c5.6956,0,8.6005,2.8106,8.6005,9.1507v2.1167c0,5.9138-2.1167,9.8447-8.9078,9.8447h-2.1365v14.7422h-5.5321v-35.8543h0ZM797.8284,320.7059h1.5169c3.4451,0,4.035-2.0126,4.035-5.5122v-1.7647c0-2.6074-.4709-4.7538-3.5443-4.7538h-2.0076v12.0307h0Z"/>
      <path class="st0" d="M815.4854,330.3721l-1.2541,9.5919h-5.6262l5.775-35.8543h7.8173l5.9931,35.8543h-5.7799l-1.4078-9.5919h-5.5175ZM820.3483,325.2862c-.8179-6.0872-1.6011-11.8672-2.0126-15.922h-.2032c-.1537,2.9544-1.2293,10.6329-1.9432,15.922h4.159,0Z"/>
      <path class="st0" d="M830.8473,339.964v-35.8543h6.4045c1.4326,5.0562,5.7105,22.7578,6.0872,24.6563h.0644c-.2578-4.4068-.2726-9.4531-.2726-15.347v-9.3093h5.1058v35.8543h-6.1616c-1.1302-4.2829-5.9038-23.9475-6.2607-25.4544h-.0545c.2627,4.3424.2429,9.2003.2429,15.6494v9.805h-5.1554Z"/>
      <path class="st0" d="M857.1097,339.964v-12.6999c0-.461-.0545-.7237-.1983-1.2145l-6.6871-21.9399h6.117c1.4375,5.8196,3.0833,12.5017,3.6335,16.4078h.0545c.7386-4.2333,2.3447-10.6923,3.6732-16.4078h5.8691l-6.8258,22.4108c-.0496.2627-.1041.6196-.1041,1.3632v12.0803h-5.5321.0001Z"/>
    </g>
  </g>
</svg>